<svg width="119" height="31" viewBox="0 0 119 31" fill="none" xmlns="http://www.w3.org/2000/svg">
<path d="M28.2771 9.2C28.6291 9.2 28.8051 9.376 28.8051 9.728V15.968H40.0371V9.728C40.0371 9.376 40.2131 9.2 40.5651 9.2H43.1571C43.5251 9.2 43.7091 9.376 43.7091 9.728V25.472C43.7091 25.824 43.5251 26 43.1571 26H40.5651C40.2131 26 40.0371 25.824 40.0371 25.472V19.088H28.8051V25.472C28.8051 25.824 28.6291 26 28.2771 26H25.6851C25.3171 26 25.1331 25.824 25.1331 25.472V9.728C25.1331 9.376 25.3171 9.2 25.6851 9.2H28.2771ZM60.8271 9.2C62.0431 9.2 63.0751 9.32 63.9231 9.56C64.7871 9.784 65.4831 10.152 66.0111 10.664C66.5551 11.16 66.9471 11.808 67.1871 12.608C67.4271 13.408 67.5471 14.384 67.5471 15.536V19.664C67.5471 20.816 67.4271 21.8 67.1871 22.616C66.9471 23.416 66.5551 24.072 66.0111 24.584C65.4831 25.08 64.7871 25.44 63.9231 25.664C63.0751 25.888 62.0431 26 60.8271 26H53.4111C52.1951 26 51.1631 25.888 50.3151 25.664C49.4671 25.44 48.7711 25.08 48.2271 24.584C47.6991 24.072 47.3071 23.416 47.0511 22.616C46.8111 21.8 46.6911 20.816 46.6911 19.664V15.536C46.6911 14.384 46.8111 13.408 47.0511 12.608C47.3071 11.808 47.6991 11.16 48.2271 10.664C48.7711 10.152 49.4671 9.784 50.3151 9.56C51.1631 9.32 52.1951 9.2 53.4111 9.2H60.8271ZM50.3631 19.4C50.3631 20.024 50.4111 20.552 50.5071 20.984C50.6191 21.4 50.7951 21.736 51.0351 21.992C51.2751 22.232 51.5951 22.408 51.9951 22.52C52.4111 22.616 52.9311 22.664 53.5551 22.664H60.6831C61.3071 22.664 61.8191 22.616 62.2191 22.52C62.6351 22.408 62.9631 22.232 63.2031 21.992C63.4431 21.736 63.6111 21.4 63.7071 20.984C63.8191 20.552 63.8751 20.024 63.8751 19.4V15.8C63.8751 15.176 63.8191 14.656 63.7071 14.24C63.6111 13.808 63.4431 13.472 63.2031 13.232C62.9631 12.976 62.6351 12.8 62.2191 12.704C61.8191 12.592 61.3071 12.536 60.6831 12.536H53.5551C52.9311 12.536 52.4111 12.592 51.9951 12.704C51.5951 12.8 51.2751 12.976 51.0351 13.232C50.7951 13.472 50.6191 13.808 50.5071 14.24C50.4111 14.656 50.3631 15.176 50.3631 15.8V19.4ZM75.2836 9.2C75.6356 9.2 75.9396 9.224 76.1956 9.272C76.4516 9.32 76.6756 9.416 76.8676 9.56C77.0596 9.688 77.2276 9.872 77.3716 10.112C77.5316 10.336 77.6916 10.64 77.8516 11.024L82.8436 22.544C82.9076 22.688 83.0196 22.76 83.1796 22.76H83.4676C83.6276 22.76 83.7396 22.688 83.8036 22.544L88.7956 11.024C88.9556 10.64 89.1076 10.336 89.2516 10.112C89.4116 9.872 89.5876 9.688 89.7796 9.56C89.9716 9.416 90.1876 9.32 90.4276 9.272C90.6836 9.224 90.9876 9.2 91.3396 9.2H93.9076C94.7396 9.2 95.2996 9.392 95.5876 9.776C95.8756 10.144 96.0196 10.784 96.0196 11.696V25.472C96.0196 25.824 95.8356 26 95.4676 26H93.0196C92.6676 26 92.4916 25.824 92.4916 25.472V12.944C92.4916 12.784 92.4276 12.704 92.2996 12.704H92.0836C91.9236 12.704 91.8196 12.768 91.7716 12.896L86.9236 23.648C86.7316 24.08 86.5316 24.448 86.3236 24.752C86.1316 25.04 85.9156 25.28 85.6756 25.472C85.4516 25.664 85.1876 25.8 84.8836 25.88C84.5956 25.96 84.2516 26 83.8516 26H82.6996C82.2996 26 81.9476 25.96 81.6436 25.88C81.3556 25.8 81.0916 25.664 80.8516 25.472C80.6276 25.28 80.4116 25.04 80.2036 24.752C80.0116 24.448 79.8196 24.08 79.6276 23.648L74.7796 12.896C74.7316 12.768 74.6276 12.704 74.4676 12.704H74.2516C74.1236 12.704 74.0596 12.784 74.0596 12.944V25.472C74.0596 25.824 73.8836 26 73.5316 26H71.0836C70.7156 26 70.5316 25.824 70.5316 25.472V11.696C70.5316 10.784 70.6756 10.144 70.9636 9.776C71.2516 9.392 71.8196 9.2 72.6676 9.2H75.2836ZM116.284 9.2C116.652 9.2 116.836 9.376 116.836 9.728V12.008C116.836 12.36 116.652 12.536 116.284 12.536H105.796C105.172 12.536 104.652 12.592 104.236 12.704C103.836 12.8 103.508 12.976 103.252 13.232C103.012 13.472 102.844 13.808 102.748 14.24C102.652 14.656 102.604 15.176 102.604 15.8V16.04H116.164C116.516 16.04 116.692 16.216 116.692 16.568V18.464C116.692 18.816 116.516 18.992 116.164 18.992H102.604V19.4C102.604 20.024 102.652 20.552 102.748 20.984C102.844 21.4 103.012 21.736 103.252 21.992C103.508 22.232 103.836 22.408 104.236 22.52C104.652 22.616 105.172 22.664 105.796 22.664H116.284C116.652 22.664 116.836 22.84 116.836 23.192V25.472C116.836 25.824 116.652 26 116.284 26H105.724C104.508 26 103.476 25.888 102.628 25.664C101.78 25.44 101.084 25.08 100.54 24.584C100.012 24.072 99.6196 23.416 99.3636 22.616C99.1236 21.8 99.0036 20.816 99.0036 19.664V15.536C99.0036 14.384 99.1236 13.408 99.3636 12.608C99.6196 11.808 100.012 11.16 100.54 10.664C101.084 10.152 101.78 9.784 102.628 9.56C103.476 9.32 104.508 9.2 105.724 9.2H116.284Z" fill="#346161"/>
<path d="M4.728 9.2C5.08 9.2 5.256 9.376 5.256 9.728V25.472C5.256 25.824 5.08 26 4.728 26H2.136C1.768 26 1.584 25.824 1.584 25.472V9.728C1.584 9.376 1.768 9.2 2.136 9.2H4.728ZM12.7232 9.2C13.1072 9.2 13.4272 9.216 13.6832 9.248C13.9392 9.28 14.1632 9.352 14.3552 9.464C14.5472 9.56 14.7312 9.704 14.9072 9.896C15.0832 10.072 15.2832 10.312 15.5072 10.616L24.4352 22.328C24.4992 22.44 24.6032 22.496 24.7472 22.496H24.9632C25.0912 22.496 25.1552 22.416 25.1552 22.256V9.728C25.1552 9.376 25.3312 9.2 25.6832 9.2H28.2032C28.5552 9.2 28.7312 9.376 28.7312 9.728V23.504C28.7312 24.48 28.5552 25.144 28.2032 25.496C27.8512 25.832 27.3072 26 26.5712 26H24.5072C24.1392 26 23.8272 25.984 23.5712 25.952C23.3312 25.92 23.1152 25.856 22.9232 25.76C22.7312 25.664 22.5392 25.528 22.3472 25.352C22.1712 25.16 21.9632 24.904 21.7232 24.584L12.7712 12.872C12.6752 12.76 12.5712 12.704 12.4592 12.704H12.2432C12.1152 12.704 12.0512 12.784 12.0512 12.944V25.472C12.0512 25.824 11.8752 26 11.5232 26H9.00319C8.63519 26 8.45119 25.824 8.45119 25.472V11.696C8.45119 10.72 8.62719 10.064 8.97919 9.728C9.33119 9.376 9.87519 9.2 10.6112 9.2H12.7232Z" fill="#346161"/>
</svg>
